<svg width="130" height="130" viewBox="0 0 130 130" fill="none" xmlns="http://www.w3.org/2000/svg">
<path d="M117.949 18.85H13.182C9.85064 18.85 7.15002 21.5506 7.15002 24.882V103.987C7.15002 107.318 9.85064 110.019 13.182 110.019H117.949C121.28 110.019 123.981 107.318 123.981 103.987V24.882C123.981 21.5506 121.28 18.85 117.949 18.85Z" stroke="#11092B" stroke-width="4" stroke-miterlimit="10"/>
<path d="M22.1001 87.1C22.1001 76.3241 30.8242 67.6 41.6001 67.6C52.376 67.6 61.1001 76.3241 61.1001 87.1" stroke="#884BEF" stroke-width="4" stroke-miterlimit="10"/>
<path d="M41.6261 65.429C47.3196 65.429 51.9351 60.8135 51.9351 55.12C51.9351 49.4265 47.3196 44.811 41.6261 44.811C35.9326 44.811 31.3171 49.4265 31.3171 55.12C31.3171 60.8135 35.9326 65.429 41.6261 65.429Z" stroke="#884BEF" stroke-width="4" stroke-miterlimit="10"/>
<path d="M72.8911 54.47H107.744" stroke="#11092B" stroke-width="4" stroke-miterlimit="10"/>
<path d="M72.8911 74.386H107.744" stroke="#11092B" stroke-width="4" stroke-miterlimit="10"/>
</svg>
