<?xml version="1.0" encoding="utf-8"?>
<!-- Generator: Adobe Illustrator 27.5.0, SVG Export Plug-In . SVG Version: 6.00 Build 0)  -->
<svg version="1.1" id="Layer_1" xmlns="http://www.w3.org/2000/svg" xmlns:xlink="http://www.w3.org/1999/xlink" x="0px" y="0px"
	 viewBox="0 0 130 130" style="enable-background:new 0 0 130 130;" xml:space="preserve">
<style type="text/css">
	.st0{fill-rule:evenodd;clip-rule:evenodd;fill:url(#SVGID_1_);}
	.st1{clip-path:url(#SVGID_00000101809092884876473690000015020671570897358239_);}
	.st2{fill:#362969;fill-opacity:0.47;}
	.st3{fill:none;stroke:#FFFFFF;stroke-opacity:0.14;}
	.st4{fill-rule:evenodd;clip-rule:evenodd;fill:url(#SVGID_00000141424143962861951890000012834279638196597924_);}
</style>
<g>
	<g>
		
			<linearGradient id="SVGID_1_" gradientUnits="userSpaceOnUse" x1="44" y1="560" x2="44" y2="650" gradientTransform="matrix(1 0 0 1 0 -560)">
			<stop  offset="0" style="stop-color:#8460E9"/>
			<stop  offset="1" style="stop-color:#541EAC"/>
		</linearGradient>
		<path class="st0" d="M81.8,35.3h2.3c1,0,2,0.4,2.8,1.2c0.7,0.8,1.1,1.8,1.1,2.8v11.4c0,1.1-0.4,2.1-1.1,2.8
			c-0.7,0.8-1.7,1.2-2.8,1.2h-2.3c-1.1,0.1-2.2,0.5-3.1,1.1c-0.9,0.7-1.6,1.6-2.1,2.6c-0.1,0.2-0.1,0.4-0.2,0.5
			C76,60,75.8,61.1,76,62.3c0.2,1.1,0.7,2.2,1.4,3.1l1.6,1.7c0.7,0.8,1.1,1.8,1.1,2.8c0,1.1-0.4,2.1-1.1,2.8l-7.9,8.1
			c-0.7,0.8-1.7,1.2-2.8,1.2c-1,0-2-0.4-2.8-1.2L64,79.2c-0.8-0.8-1.9-1.3-3-1.4c-1.1-0.2-2.2-0.1-3.3,0.4c-0.2,0.1-0.3,0.2-0.5,0.2
			c-1,0.4-1.9,1.2-2.6,2.1c-0.7,0.9-1,2-1.1,3.2V86c0,1.1-0.4,2.1-1.1,2.8c-0.7,0.8-1.7,1.2-2.8,1.2H38.4c-1,0-2-0.4-2.8-1.2
			C34.9,88,34.5,87,34.5,86v-2.3c-0.1-1.2-0.5-2.3-1.1-3.2c-0.7-0.9-1.6-1.7-2.6-2.1c-0.2-0.1-0.4-0.2-0.5-0.2
			c-1-0.4-2.2-0.6-3.3-0.4c-1.1,0.2-2.1,0.7-3,1.4l-1.6,1.7c-0.7,0.8-1.7,1.2-2.8,1.2c-1,0-2-0.4-2.8-1.2l-7.9-8.1
			C8.2,72,7.8,71,7.8,69.9s0.4-2.1,1.1-2.8l1.6-1.7c0.7-0.9,1.2-1.9,1.4-3.1c0.2-1.1,0.1-2.3-0.4-3.4c-0.1-0.2-0.1-0.4-0.2-0.5
			c-0.4-1.1-1.1-2-2.1-2.6c-0.9-0.7-2-1.1-3.1-1.1H3.9c-1,0-2-0.4-2.8-1.2C0.4,52.8,0,51.8,0,50.7V39.3c0-1.1,0.4-2.1,1.1-2.8
			c0.7-0.8,1.7-1.2,2.8-1.2h2.3c1.1-0.1,2.2-0.5,3.1-1.1c0.9-0.7,1.6-1.6,2.1-2.6c0.1-0.2,0.1-0.4,0.2-0.5c0.4-1.1,0.6-2.2,0.4-3.4
			c-0.2-1.1-0.7-2.2-1.4-3.1L9,22.9c-0.7-0.8-1.1-1.8-1.1-2.8C7.9,19,8.3,18,9,17.3l7.9-8.1C17.6,8.4,18.6,8,19.6,8s2,0.4,2.8,1.2
			l1.6,1.7c0.8,0.8,1.9,1.3,3,1.4c1.1,0.2,2.2,0.1,3.3-0.4c0.2-0.1,0.3-0.2,0.5-0.2c1-0.4,1.9-1.2,2.6-2.1c0.7-0.9,1-2,1.1-3.2V4
			c0-1.1,0.4-2.1,1.1-2.8C36.4,0.4,37.4,0,38.4,0h11.2c1,0,2,0.4,2.8,1.2C53.1,2,53.5,3,53.5,4v2.3c0.1,1.1,0.5,2.3,1.1,3.2
			s1.6,1.7,2.6,2.1c0.2,0.1,0.4,0.2,0.5,0.2c1,0.4,2.2,0.6,3.3,0.4c1.1-0.2,2.1-0.7,3-1.4l1.6-1.7C66.3,8.4,67.3,8,68.4,8
			c1,0,2,0.4,2.8,1.2l7.9,8.1c0.7,0.8,1.1,1.8,1.1,2.8c0,1.1-0.4,2.1-1.1,2.8l-1.6,1.7c-0.7,0.9-1.2,1.9-1.4,3.1
			c-0.2,1.1-0.1,2.3,0.4,3.4c0,0.1,0.1,0.1,0.1,0.2s0.1,0.2,0.1,0.3c0.4,1.1,1.1,2,2.1,2.6C79.6,34.8,80.7,35.2,81.8,35.3z"/>
	</g>
	<g>
		<g>
			<g>
				<defs>
					<path id="SVGID_00000102533979163260474890000007632676224322778533_" d="M80.5,75.3V64.5h18.2V47.9H80.5V37H64.3v11
						C53,48.5,44,58.2,44,69.9s9,21.3,20.3,21.9V104H46.1v16.6h18.2v7.2h16.2v-7.2c11.3-0.6,20.4-10.2,20.4-21.9v-1.4
						C100.9,85.5,91.9,75.9,80.5,75.3L80.5,75.3z M60.2,69.9c0-2.6,1.8-4.7,4.2-5.3v10.5C62,74.6,60.2,72.5,60.2,69.9L60.2,69.9z
						 M84.7,98.7c0,2.6-1.8,4.7-4.2,5.3V92c2.4,0.5,4.2,2.7,4.2,5.3V98.7L84.7,98.7z"/>
				</defs>
				<clipPath id="SVGID_00000165193979317322924040000015080089381450345910_">
					<use xlink:href="#SVGID_00000102533979163260474890000007632676224322778533_"  style="overflow:visible;"/>
				</clipPath>
				<g style="clip-path:url(#SVGID_00000165193979317322924040000015080089381450345910_);">
					<g>
						<g>
							<defs>
								<polygon id="SVGID_00000163049458796634786040000003545251703775211186_" points="37.3,30.3 38.3,30.3 37.3,31.3 								
									"/>
							</defs>
							<clipPath id="SVGID_00000089551150012030950310000015867092052194949266_">
								<use xlink:href="#SVGID_00000163049458796634786040000003545251703775211186_"  style="overflow:visible;"/>
							</clipPath>
						</g>
					</g>
				</g>
			</g>
		</g>
	</g>
	<g>
		<path class="st2" d="M80.5,75.3V64.5h18.2V47.9H80.5V37H64.3v11C53,48.5,44,58.2,44,69.9s9,21.3,20.3,21.9V104H46.1v16.6h18.2v7.2
			h16.2v-7.2c11.3-0.6,20.4-10.2,20.4-21.9v-1.4C100.9,85.5,91.9,75.9,80.5,75.3L80.5,75.3z M60.2,69.9c0-2.6,1.8-4.7,4.2-5.3v10.5
			C62,74.6,60.2,72.5,60.2,69.9L60.2,69.9z M84.7,98.7c0,2.6-1.8,4.7-4.2,5.3V92c2.4,0.5,4.2,2.7,4.2,5.3V98.7L84.7,98.7z"/>
		<path class="st3" d="M80,104.5l0.6-0.1c2.6-0.6,4.5-2.9,4.5-5.7v-1.5c0-2.8-2-5.2-4.5-5.7L80,91.3V104.5z M64.2,64.1
			c-2.6,0.6-4.5,2.9-4.5,5.7l0,0c0,2.8,2,5.2,4.5,5.7l0.6,0.1V64L64.2,64.1z M64.8,91.3h-0.5c-11-0.6-19.9-10-19.9-21.4
			s8.9-20.9,20-21.5h0.5V37.5H80v10.9h18.2V64H80v11.8h0.5c11,0.6,19.9,10,19.9,21.4v1.4c0,11.5-8.8,20.8-19.9,21.4H80v7.2H64.8V120
			H46.6v-15.6h18.2V91.3z"/>
	</g>
	<g>
		
			<linearGradient id="SVGID_00000060028938894247056520000004669510084729566610_" gradientUnits="userSpaceOnUse" x1="4.5465" y1="606.8406" x2="84.9333" y2="609.7997" gradientTransform="matrix(1 0 0 1 0 -560)">
			<stop  offset="0" style="stop-color:#FFFFFF"/>
			<stop  offset="1" style="stop-color:#C3B6F8"/>
		</linearGradient>
		<path style="fill-rule:evenodd;clip-rule:evenodd;fill:url(#SVGID_00000060028938894247056520000004669510084729566610_);" d="
			M62,41.6v19.6c0,1.2-1,2.2-2.1,2.2H40.7c-1.2,0-2.1-1-2.1-2.2s1-2.2,2.1-2.2h14L32.6,36.4c-0.8-0.8-0.8-2.2,0-3.1
			c0.8-0.8,2.2-0.8,3,0L57.7,56V41.6c0-1.2,1-2.2,2.1-2.2C61,39.4,62,40.4,62,41.6z"/>
	</g>
</g>
</svg>
