<svg width="130" height="130" viewBox="0 0 130 130" fill="none" xmlns="http://www.w3.org/2000/svg">
<path d="M73.9518 106.793C67.1667 110.447 59.3838 112.531 51.0877 112.531C24.6031 112.531 3.13599 91.2349 3.13599 64.9714C3.13599 38.7079 24.6031 17.4402 51.0877 17.4402C77.5724 17.4402 99.0395 38.7365 99.0395 65C99.0395 72.6507 97.2149 79.8731 93.9935 86.2677" stroke="#11092B" stroke-width="4" stroke-miterlimit="10"/>
<path d="M127.805 78.8169L96.9298 109.42L81.5066 94.1182" stroke="#884BEF" stroke-width="4" stroke-miterlimit="10"/>
<path d="M38.2195 76.6V57.34L39.5395 58.36H33.7495V54.7H42.4495V76.6H38.2195ZM54.6536 77.2C52.9736 77.2 51.4936 76.93 50.2136 76.39C48.9336 75.85 47.9336 75.08 47.2136 74.08C46.4936 73.08 46.1336 71.89 46.1336 70.51C46.1336 69.59 46.2936 68.78 46.6136 68.08C46.9336 67.36 47.3736 66.75 47.9336 66.25C48.4936 65.73 49.1536 65.34 49.9136 65.08V64.72C49.3336 64.46 48.8036 64.12 48.3236 63.7C47.8636 63.28 47.4936 62.77 47.2136 62.17C46.9536 61.57 46.8236 60.88 46.8236 60.1C46.8236 58.78 47.1636 57.68 47.8436 56.8C48.5436 55.9 49.4836 55.23 50.6636 54.79C51.8636 54.33 53.1936 54.1 54.6536 54.1C56.1336 54.1 57.4636 54.33 58.6436 54.79C59.8436 55.23 60.7836 55.9 61.4636 56.8C62.1636 57.68 62.5136 58.78 62.5136 60.1C62.5136 60.88 62.3736 61.57 62.0936 62.17C61.8336 62.77 61.4736 63.28 61.0136 63.7C60.5536 64.12 60.0236 64.46 59.4236 64.72V65.08C60.1836 65.34 60.8436 65.73 61.4036 66.25C61.9836 66.77 62.4236 67.39 62.7236 68.11C63.0436 68.81 63.2036 69.61 63.2036 70.51C63.2036 71.89 62.8436 73.08 62.1236 74.08C61.4236 75.08 60.4336 75.85 59.1536 76.39C57.8736 76.93 56.3736 77.2 54.6536 77.2ZM54.6536 73.69C55.5736 73.69 56.3636 73.55 57.0236 73.27C57.6836 72.99 58.1936 72.58 58.5536 72.04C58.9136 71.5 59.0936 70.85 59.0936 70.09C59.0936 69.33 58.9136 68.69 58.5536 68.17C58.2136 67.63 57.7036 67.22 57.0236 66.94C56.3636 66.66 55.5736 66.52 54.6536 66.52C53.7536 66.52 52.9736 66.66 52.3136 66.94C51.6536 67.22 51.1436 67.63 50.7836 68.17C50.4236 68.69 50.2436 69.33 50.2436 70.09C50.2436 70.85 50.4236 71.5 50.7836 72.04C51.1436 72.58 51.6536 72.99 52.3136 73.27C52.9736 73.55 53.7536 73.69 54.6536 73.69ZM54.6536 63.34C55.8136 63.34 56.7236 63.1 57.3836 62.62C58.0636 62.12 58.4036 61.4 58.4036 60.46C58.4036 59.48 58.0636 58.76 57.3836 58.3C56.7036 57.84 55.7936 57.61 54.6536 57.61C53.5136 57.61 52.6036 57.85 51.9236 58.33C51.2636 58.79 50.9336 59.5 50.9336 60.46C50.9336 61.4 51.2736 62.12 51.9536 62.62C52.6336 63.1 53.5336 63.34 54.6536 63.34Z" fill="#11092B"/>
</svg>
