<?xml version="1.0" encoding="utf-8"?>
<!-- Generator: Adobe Illustrator 27.5.0, SVG Export Plug-In . SVG Version: 6.00 Build 0)  -->
<svg version="1.1" id="Layer_1" xmlns="http://www.w3.org/2000/svg" xmlns:xlink="http://www.w3.org/1999/xlink" x="0px" y="0px"
	 viewBox="0 0 130 130" style="enable-background:new 0 0 130 130;" xml:space="preserve">
<style type="text/css">
	.st0{fill:url(#SVGID_1_);}
	.st1{clip-path:url(#SVGID_00000004527734814883153540000017509164400418548883_);}
	.st2{clip-path:url(#SVGID_00000169527799422625850180000004986030542706615718_);}
	.st3{fill:#362969;fill-opacity:0.47;}
	.st4{fill:none;stroke:#FFFFFF;stroke-opacity:0.14;}
	.st5{fill-rule:evenodd;clip-rule:evenodd;fill:url(#SVGID_00000027570964073566857900000004768889789946990466_);}
</style>
<g>
	
		<linearGradient id="SVGID_1_" gradientUnits="userSpaceOnUse" x1="73.6881" y1="129.3903" x2="73.6881" y2="14.0519" gradientTransform="matrix(1 0 0 -1 0 132)">
		<stop  offset="0" style="stop-color:#8460E9"/>
		<stop  offset="1" style="stop-color:#541EAC"/>
	</linearGradient>
	<ellipse class="st0" cx="73.7" cy="60.3" rx="56.4" ry="57.7"/>
</g>
<g>
	<g>
		<defs>
			<ellipse id="SVGID_00000087375126239125530120000001637285205023985803_" cx="28.5" cy="97.7" rx="31.5" ry="32.3"/>
		</defs>
		<clipPath id="SVGID_00000078745190278979818570000006785576651459838889_">
			<use xlink:href="#SVGID_00000087375126239125530120000001637285205023985803_"  style="overflow:visible;"/>
		</clipPath>
		<g style="clip-path:url(#SVGID_00000078745190278979818570000006785576651459838889_);">
			<g>
				<defs>
					<polygon id="SVGID_00000181773438129276380960000002562430457029143696_" points="-9.7,58.8 -8.7,58.8 -9.7,59.8 					"/>
				</defs>
				<defs>
					<polygon id="SVGID_00000039101572055857611720000003657447005354919353_" points="-11.7,56.8 -12.7,56.8 -11.7,55.8 					"/>
				</defs>
				<clipPath id="SVGID_00000113344765137146141920000000537485948494590138_">
					<use xlink:href="#SVGID_00000181773438129276380960000002562430457029143696_"  style="overflow:visible;"/>
				</clipPath>
				
					<clipPath id="SVGID_00000056422535003360446900000012637247791754634646_" style="clip-path:url(#SVGID_00000113344765137146141920000000537485948494590138_);">
					<use xlink:href="#SVGID_00000039101572055857611720000003657447005354919353_"  style="overflow:visible;"/>
				</clipPath>
			</g>
		</g>
	</g>
</g>
<g>
	<ellipse class="st3" cx="32.2" cy="95.9" rx="31.5" ry="32.3"/>
	<path class="st4" d="M32.2,64.1c17.1,0,31,14.2,31,31.8c0,17.5-13.9,31.8-31,31.8s-31-14.2-31-31.8C1.1,78.4,15,64.1,32.2,64.1z"/>
</g>
<linearGradient id="SVGID_00000014616170060147029360000003757449073870125460_" gradientUnits="userSpaceOnUse" x1="39.0733" y1="64.7889" x2="90.3949" y2="66.3461" gradientTransform="matrix(1 0 0 -1 0 132)">
	<stop  offset="0" style="stop-color:#FFFFFF"/>
	<stop  offset="1" style="stop-color:#C3B6F8"/>
</linearGradient>
<path style="fill-rule:evenodd;clip-rule:evenodd;fill:url(#SVGID_00000014616170060147029360000003757449073870125460_);" d="
	M51.7,53.1h21.5c1.3,0,2.4,1.1,2.4,2.4v22c0,1.3-1.1,2.4-2.4,2.4c-1.3,0-2.4-1.1-2.4-2.4V61.4l-16,16.4c-0.9,1-2.4,1-3.4,0
	c-0.9-1-0.9-2.5,0-3.5l16-16.4H51.7c-1.3,0-2.4-1.1-2.4-2.4C49.3,54.2,50.4,53.1,51.7,53.1z"/>
</svg>
