<svg width="160" height="37" viewBox="0 0 160 37" fill="none" xmlns="http://www.w3.org/2000/svg">
<path d="M103.714 12.8055C102.182 11.8573 100.438 11.3844 98.4891 11.3844C96.7323 11.3844 95.3041 11.7333 94.2045 12.4288C93.1024 13.1267 92.2176 13.9334 91.5503 14.8538V2.51855H86.199V32.631H90.9639L91.5503 29.7861C92.2758 30.8457 93.2237 31.6675 94.3941 32.2542C95.5644 32.8409 96.9294 33.1317 98.4916 33.1317C100.443 33.1317 102.185 32.6639 103.717 31.7308C105.248 30.7977 106.462 29.513 107.354 27.882C108.246 26.2509 108.691 24.3898 108.691 22.2985C108.691 20.2072 108.244 18.341 107.354 16.6948C106.462 15.0511 105.248 13.7538 103.717 12.8055H103.714ZM101.583 26.7314C100.468 27.8744 99.0604 28.4459 97.3617 28.4459C95.663 28.4459 94.2196 27.8668 93.1175 26.7112C92.0154 25.5555 91.4669 24.0712 91.4669 22.258C91.4669 20.4449 92.0179 18.9605 93.1175 17.8049C94.2171 16.6493 95.6327 16.0702 97.3617 16.0702C99.0907 16.0702 100.468 16.6568 101.583 17.8277C102.698 18.9985 103.256 20.4904 103.256 22.3036C103.256 24.1167 102.698 25.5935 101.583 26.7365V26.7314Z" fill="#11092B"/>
<path d="M117.063 11.8853H111.712V32.6287H117.063V11.8853Z" fill="#11092B"/>
<path d="M134.222 21.1503C133.009 20.7457 131.679 20.3765 130.231 20.0427C128.893 19.7368 127.819 19.4004 127.01 19.0388C126.201 18.6772 125.797 18.1892 125.797 17.5747C125.797 16.9602 126.07 16.5025 126.613 16.1105C127.157 15.7211 127.93 15.5239 128.934 15.5239C130.941 15.5239 132.096 16.2901 132.404 17.825H137.463C137.184 15.8172 136.312 14.2418 134.849 13.0988C133.385 11.9558 131.426 11.3843 128.974 11.3843C126.325 11.3843 124.27 12.0114 122.809 13.2657C121.345 14.5199 120.615 16.0675 120.615 17.9085C120.615 18.9124 120.852 19.757 121.325 20.4398C121.798 21.1225 122.42 21.6814 123.186 22.1138C123.952 22.5462 124.796 22.9028 125.716 23.1809C126.636 23.4591 127.541 23.6968 128.433 23.8915C129.826 24.1975 130.913 24.5111 131.694 24.8322C132.475 25.1534 132.865 25.7603 132.865 26.6504C132.865 27.2649 132.592 27.8086 132.048 28.2814C131.505 28.7568 130.648 28.992 129.477 28.992C128.307 28.992 127.351 28.7063 126.613 28.1348C125.875 27.5633 125.423 26.8729 125.256 26.0637H119.862C120.028 27.4596 120.531 28.686 121.366 29.7431C122.202 30.8026 123.317 31.632 124.71 32.2314C126.103 32.8307 127.72 33.1316 129.558 33.1316C131.396 33.1316 132.887 32.8383 134.199 32.2541C135.509 31.6674 136.512 30.8608 137.21 29.829C137.905 28.7973 138.241 27.6417 138.213 26.3571C138.213 24.8803 137.852 23.7423 137.126 22.9483C136.401 22.1543 135.433 21.5549 134.222 21.1503Z" fill="#11092B"/>
<path d="M154.497 21.1503C153.284 20.7457 151.954 20.3765 150.506 20.0427C149.169 19.7368 148.094 19.4004 147.286 19.0388C146.477 18.6772 146.072 18.1892 146.072 17.5747C146.072 16.9602 146.345 16.5025 146.889 16.1105C147.432 15.7211 148.206 15.5239 149.209 15.5239C151.216 15.5239 152.371 16.2901 152.68 17.825H157.738C157.46 15.8172 156.588 14.2418 155.124 13.0988C153.661 11.9558 151.702 11.3843 149.25 11.3843C146.601 11.3843 144.545 12.0114 143.084 13.2657C141.621 14.5199 140.89 16.0675 140.89 17.9085C140.89 18.9124 141.128 19.757 141.601 20.4398C142.073 21.1225 142.695 21.6814 143.461 22.1138C144.227 22.5462 145.071 22.9028 145.991 23.1809C146.911 23.4591 147.816 23.6968 148.709 23.8915C150.101 24.1975 151.188 24.5111 151.97 24.8322C152.751 25.1534 153.14 25.7603 153.14 26.6504C153.14 27.2649 152.867 27.8086 152.323 28.2814C151.78 28.7568 150.923 28.992 149.753 28.992C148.582 28.992 147.627 28.7063 146.889 28.1348C146.151 27.5633 145.698 26.8729 145.531 26.0637H140.137C140.304 27.4596 140.807 28.686 141.641 29.7431C142.478 30.8026 143.592 31.632 144.985 32.2314C146.378 32.8307 147.996 33.1316 149.834 33.1316C151.671 33.1316 153.163 32.8383 154.475 32.2541C155.784 31.6674 156.787 30.8608 157.485 29.829C158.18 28.7973 158.516 27.6417 158.489 26.3571C158.489 24.8803 158.127 23.7423 157.402 22.9483C156.676 22.1543 155.708 21.5549 154.497 21.1503Z" fill="#11092B"/>
<path d="M72.4882 11.354C66.4771 11.354 61.5884 16.2446 61.5884 22.258C61.5884 28.2714 66.4771 33.162 72.4882 33.162C78.4993 33.162 83.388 28.2714 83.388 22.258C83.388 16.2446 78.4993 11.354 72.4882 11.354ZM72.4882 28.1222C69.2577 28.1222 66.6288 25.4923 66.6288 22.2605C66.6288 19.0288 69.2577 16.3963 72.4882 16.3963C75.7187 16.3963 78.3501 19.0263 78.3501 22.2605C78.3501 25.4948 75.7212 28.1222 72.4882 28.1222Z" fill="#11092B"/>
<path d="M48.4313 11.354C42.4202 11.354 37.5315 16.2446 37.5315 22.258C37.5315 28.2714 42.4202 33.162 48.4313 33.162C54.4424 33.162 59.3311 28.2714 59.3311 22.258C59.3311 16.2446 54.4424 11.354 48.4313 11.354ZM48.4313 28.1222C45.2008 28.1222 42.5694 25.4923 42.5694 22.2605C42.5694 19.0288 45.1983 16.3963 48.4313 16.3963C51.6643 16.3963 54.2907 19.0263 54.2907 22.2605C54.2907 25.4948 51.6618 28.1222 48.4313 28.1222Z" fill="#11092B"/>
<path d="M114.386 2.51855C112.71 2.51855 111.353 3.8765 111.353 5.55306C111.353 7.22963 112.71 8.58757 114.386 8.58757C116.062 8.58757 117.42 7.22963 117.42 5.55306C117.42 3.8765 116.062 2.51855 114.386 2.51855Z" fill="#11092B"/>
<path d="M36.4143 32.6388L31.8643 28.087C34.0609 25.1536 35.3627 21.5122 35.3627 17.575C35.3602 7.88223 27.4786 -0.00244141 17.7921 -0.00244141C8.1056 -0.00244141 0.221436 7.88223 0.221436 17.575C0.221436 27.2677 8.10308 35.1524 17.7921 35.1524C21.7304 35.1524 25.3679 33.85 28.3001 31.6525L32.8501 36.2043L36.4143 32.6388ZM5.26184 17.575C5.26184 10.6639 10.8836 5.0399 17.7921 5.0399C24.7005 5.0399 30.3223 10.6639 30.3223 17.575C30.3223 24.486 24.7005 30.11 17.7921 30.11C10.8836 30.11 5.26184 24.486 5.26184 17.575Z" fill="#11092B"/>
<path d="M17.7922 9.36914C13.27 9.36914 9.59204 13.0485 9.59204 17.5724C9.59204 19.8331 10.5122 21.8865 11.996 23.3709L15.5576 19.8079C14.9863 19.2364 14.6299 18.4449 14.6299 17.5724C14.6299 15.8276 16.048 14.409 17.7922 14.409C19.5364 14.409 20.9544 15.8276 20.9544 17.5724C20.9544 18.4449 20.6006 19.2338 20.0267 19.8079L23.5884 23.3709C25.0722 21.8865 25.9923 19.8331 25.9923 17.5724C25.9923 13.0485 22.3144 9.36914 17.7922 9.36914Z" fill="#884BEF"/>
</svg>
