<svg width="100" height="100" viewBox="0 0 100 100" fill="none" xmlns="http://www.w3.org/2000/svg">
<g clip-path="url(#clip0_5528_7054)">
<mask id="mask0_5528_7054" style="mask-type:alpha" maskUnits="userSpaceOnUse" x="-12" y="-1" width="88" height="90">
<path d="M68.7946 45.0898C55.1527 45.0898 44.0632 56.0369 44.0632 69.4845C44.0632 73.2074 44.9138 76.7386 46.4332 79.8989C50.4024 88.1543 -0.764757 96.6547 -4.24936 76.8914C-6.86268 67.0098 -42.5794 -8.17644 65.0054 -0.443003C74.1523 1.70519 82.4279 45.0898 68.7946 45.0898Z" fill="white"/>
</mask>
<g mask="url(#mask0_5528_7054)">
<path d="M36.6102 32.82C52.6873 32.82 65.7202 26.7042 65.7202 19.16C65.7202 11.6158 52.6873 5.5 36.6102 5.5C20.5332 5.5 7.50024 11.6158 7.50024 19.16C7.50024 26.7042 20.5332 32.82 36.6102 32.82Z" stroke="#E6E5EA" stroke-width="4" stroke-miterlimit="10"/>
<path d="M65.7102 42.8601C65.7102 50.4001 52.6802 56.5201 36.6002 56.5201C20.5202 56.5201 7.49023 50.4001 7.49023 42.8601" stroke="#E6E5EA" stroke-width="4" stroke-miterlimit="10"/>
<path d="M7.50024 19.1599V65.3299C7.50024 72.8699 20.5302 78.9899 36.6102 78.9899C52.6902 78.9899 65.7202 72.8699 65.7202 65.3299V19.1599" stroke="#E6E5EA" stroke-width="4" stroke-miterlimit="10"/>
</g>
<path d="M69.3698 87.7001C79.2115 87.7001 87.1898 79.7218 87.1898 69.8801C87.1898 60.0383 79.2115 52.0601 69.3698 52.0601C59.5281 52.0601 51.5498 60.0383 51.5498 69.8801C51.5498 79.7218 59.5281 87.7001 69.3698 87.7001Z" stroke="#B9E368" stroke-width="4" stroke-miterlimit="10"/>
<path d="M81.9697 82.48L91.7597 92.27" stroke="#B9E368" stroke-width="4" stroke-miterlimit="10"/>
</g>
<defs>
<clipPath id="clip0_5528_7054">
<rect width="94.74" height="97.27" fill="white" transform="translate(3 1)"/>
</clipPath>
</defs>
</svg>
