<?xml version="1.0" encoding="utf-8"?>
<!-- Generator: Adobe Illustrator 27.5.0, SVG Export Plug-In . SVG Version: 6.00 Build 0)  -->
<svg version="1.1" id="Layer_1" xmlns="http://www.w3.org/2000/svg" xmlns:xlink="http://www.w3.org/1999/xlink" x="0px" y="0px"
	 viewBox="0 0 130 130" style="enable-background:new 0 0 130 130;" xml:space="preserve">
<style type="text/css">
	.st0{fill-rule:evenodd;clip-rule:evenodd;fill:url(#SVGID_1_);}
	.st1{clip-path:url(#SVGID_00000061473551764871387550000012810225774467736744_);}
	.st2{clip-path:url(#SVGID_00000129178235243862925430000012603312496583858344_);}
	.st3{fill:#362969;fill-opacity:0.47;}
	.st4{fill:none;stroke:#FFFFFF;stroke-opacity:0.14;}
	.st5{fill-rule:evenodd;clip-rule:evenodd;fill:url(#SVGID_00000165935155841927356520000001103300540374521232_);}
</style>
<g>
	<g>
		
			<linearGradient id="SVGID_1_" gradientUnits="userSpaceOnUse" x1="69.2662" y1="132" x2="69.2662" y2="19.594" gradientTransform="matrix(1 0 0 -1 0 132)">
			<stop  offset="0" style="stop-color:#8460E9"/>
			<stop  offset="1" style="stop-color:#541EAC"/>
		</linearGradient>
		<path class="st0" d="M69.3,112.4c30.3,0,54.9-25.2,54.9-56.2S99.6,0,69.3,0C38.9,0,14.3,25.2,14.3,56.2S38.9,112.4,69.3,112.4z
			 M51.9,30.3c-4.4,0-8,3.6-8,8v35.8c0,4.4,3.6,8,8,8h34.6c4.4,0,8-3.6,8-8V38.3c0-4.4-3.6-8-8-8H51.9z"/>
	</g>
	<g>
		<g>
			<defs>
				<path id="SVGID_00000116950452059976008230000013157416538974235794_" d="M8,46.9h65.2c4.4,0,8,3.6,8,8V122c0,4.4-3.6,8-8,8H8
					c-4.4,0-8-3.6-8-8V54.9C0,50.5,3.6,46.9,8,46.9z"/>
			</defs>
			<clipPath id="SVGID_00000180335032133680727950000012043746212494143891_">
				<use xlink:href="#SVGID_00000116950452059976008230000013157416538974235794_"  style="overflow:visible;"/>
			</clipPath>
			<g style="clip-path:url(#SVGID_00000180335032133680727950000012043746212494143891_);">
				<g>
					<defs>
						<polygon id="SVGID_00000040533236256572191770000014583834634721825447_" points="-6.7,40.2 -5.7,40.2 -6.7,41.2 						"/>
					</defs>
					<defs>
						<polygon id="SVGID_00000057129544549479061330000001731983498694314667_" points="-8.7,38.2 -9.7,38.2 -8.7,37.2 						"/>
					</defs>
					<clipPath id="SVGID_00000040564272037739576290000011777629338908909704_">
						<use xlink:href="#SVGID_00000040533236256572191770000014583834634721825447_"  style="overflow:visible;"/>
					</clipPath>
					
						<clipPath id="SVGID_00000056428861215914024810000010373114242581407134_" style="clip-path:url(#SVGID_00000040564272037739576290000011777629338908909704_);">
						<use xlink:href="#SVGID_00000057129544549479061330000001731983498694314667_"  style="overflow:visible;"/>
					</clipPath>
				</g>
			</g>
		</g>
	</g>
	<g>
		<path class="st3" d="M8,46.9h65.2c4.4,0,8,3.6,8,8V122c0,4.4-3.6,8-8,8H8c-4.4,0-8-3.6-8-8V54.9C0,50.5,3.6,46.9,8,46.9z"/>
		<path class="st4" d="M8,47.4h65.2c4.1,0,7.5,3.4,7.5,7.5V122c0,4.1-3.4,7.5-7.5,7.5H8c-4.1,0-7.5-3.4-7.5-7.5V54.9
			C0.5,50.8,3.9,47.4,8,47.4z"/>
	</g>
	
		<linearGradient id="SVGID_00000087379780907122023130000016704062759954416022_" gradientUnits="userSpaceOnUse" x1="16.2778" y1="43.2849" x2="67.5994" y2="44.8421" gradientTransform="matrix(1 0 0 -1 0 132)">
		<stop  offset="0" style="stop-color:#FFFFFF"/>
		<stop  offset="1" style="stop-color:#C3B6F8"/>
	</linearGradient>
	<path style="fill-rule:evenodd;clip-rule:evenodd;fill:url(#SVGID_00000087379780907122023130000016704062759954416022_);" d="
		M28.9,74.6h21.5c1.3,0,2.4,1.1,2.4,2.4v22c0,1.3-1.1,2.4-2.4,2.4S48,100.4,48,99V82.9l-16,16.4c-0.9,1-2.4,1-3.4,0
		c-0.9-1-0.9-2.5,0-3.5l16-16.4H28.9c-1.3,0-2.4-1.1-2.4-2.4S27.6,74.6,28.9,74.6z"/>
</g>
</svg>
